<mxfile host="app.diagrams.net" modified="2022-09-14T21:43:37.866Z" agent="5.0 (Windows NT 10.0; Win64; x64) AppleWebKit/537.36 (KHTML, like Gecko) Chrome/105.0.0.0 Safari/537.36 Edg/105.0.1343.33" etag="0iYDUCdEdLOgllg4wRFa" version="20.3.0" type="github">
  <diagram id="C5RBs43oDa-KdzZeNtuy" name="Page-1">
    <mxGraphModel dx="782" dy="468" grid="1" gridSize="10" guides="1" tooltips="1" connect="1" arrows="1" fold="1" page="1" pageScale="1" pageWidth="827" pageHeight="1169" math="0" shadow="0">
      <root>
        <mxCell id="WIyWlLk6GJQsqaUBKTNV-0" />
        <mxCell id="WIyWlLk6GJQsqaUBKTNV-1" parent="WIyWlLk6GJQsqaUBKTNV-0" />
        <mxCell id="W-ZZmaoJpfkEgvUS2qyO-48" style="edgeStyle=orthogonalEdgeStyle;rounded=0;orthogonalLoop=1;jettySize=auto;html=1;entryX=0.449;entryY=0.004;entryDx=0;entryDy=0;entryPerimeter=0;" parent="WIyWlLk6GJQsqaUBKTNV-1" source="W-ZZmaoJpfkEgvUS2qyO-13" target="W-ZZmaoJpfkEgvUS2qyO-45" edge="1">
          <mxGeometry relative="1" as="geometry" />
        </mxCell>
        <mxCell id="LEjf0Js33OpnvhWqmB9_-26" style="edgeStyle=orthogonalEdgeStyle;rounded=0;orthogonalLoop=1;jettySize=auto;html=1;" edge="1" parent="WIyWlLk6GJQsqaUBKTNV-1" source="W-ZZmaoJpfkEgvUS2qyO-13" target="LEjf0Js33OpnvhWqmB9_-22">
          <mxGeometry relative="1" as="geometry" />
        </mxCell>
        <mxCell id="W-ZZmaoJpfkEgvUS2qyO-13" value="Recipient" style="swimlane;startSize=23;" parent="WIyWlLk6GJQsqaUBKTNV-1" vertex="1">
          <mxGeometry x="10" y="260" width="200" height="200" as="geometry" />
        </mxCell>
        <mxCell id="W-ZZmaoJpfkEgvUS2qyO-18" value="Net ID&lt;br&gt;Name&amp;nbsp;&lt;br&gt;Date visited" style="text;html=1;align=center;verticalAlign=middle;resizable=0;points=[];autosize=1;strokeColor=none;fillColor=none;" parent="W-ZZmaoJpfkEgvUS2qyO-13" vertex="1">
          <mxGeometry x="55" y="40" width="90" height="60" as="geometry" />
        </mxCell>
        <mxCell id="W-ZZmaoJpfkEgvUS2qyO-39" value="Date (Form)" style="text;html=1;align=center;verticalAlign=middle;resizable=0;points=[];autosize=1;strokeColor=none;fillColor=none;" parent="W-ZZmaoJpfkEgvUS2qyO-13" vertex="1">
          <mxGeometry x="55" y="100" width="90" height="30" as="geometry" />
        </mxCell>
        <mxCell id="W-ZZmaoJpfkEgvUS2qyO-14" value="Categories" style="swimlane;" parent="WIyWlLk6GJQsqaUBKTNV-1" vertex="1">
          <mxGeometry x="600" y="285" width="200" height="75" as="geometry" />
        </mxCell>
        <mxCell id="W-ZZmaoJpfkEgvUS2qyO-37" style="edgeStyle=orthogonalEdgeStyle;rounded=0;orthogonalLoop=1;jettySize=auto;html=1;entryX=0.393;entryY=-0.012;entryDx=0;entryDy=0;entryPerimeter=0;" parent="WIyWlLk6GJQsqaUBKTNV-1" source="W-ZZmaoJpfkEgvUS2qyO-34" target="W-ZZmaoJpfkEgvUS2qyO-13" edge="1">
          <mxGeometry relative="1" as="geometry" />
        </mxCell>
        <mxCell id="W-ZZmaoJpfkEgvUS2qyO-38" style="edgeStyle=orthogonalEdgeStyle;rounded=0;orthogonalLoop=1;jettySize=auto;html=1;entryX=0.638;entryY=-0.004;entryDx=0;entryDy=0;entryPerimeter=0;" parent="WIyWlLk6GJQsqaUBKTNV-1" source="W-ZZmaoJpfkEgvUS2qyO-34" target="W-ZZmaoJpfkEgvUS2qyO-14" edge="1">
          <mxGeometry relative="1" as="geometry" />
        </mxCell>
        <mxCell id="LEjf0Js33OpnvhWqmB9_-2" style="edgeStyle=orthogonalEdgeStyle;rounded=0;orthogonalLoop=1;jettySize=auto;html=1;" edge="1" parent="WIyWlLk6GJQsqaUBKTNV-1" source="W-ZZmaoJpfkEgvUS2qyO-34" target="LEjf0Js33OpnvhWqmB9_-1">
          <mxGeometry relative="1" as="geometry" />
        </mxCell>
        <mxCell id="W-ZZmaoJpfkEgvUS2qyO-34" value="Tables" style="rounded=0;whiteSpace=wrap;html=1;" parent="WIyWlLk6GJQsqaUBKTNV-1" vertex="1">
          <mxGeometry x="294" y="170" width="240" height="40" as="geometry" />
        </mxCell>
        <mxCell id="W-ZZmaoJpfkEgvUS2qyO-45" value="NFTBA Form" style="swimlane;" parent="WIyWlLk6GJQsqaUBKTNV-1" vertex="1">
          <mxGeometry x="20" y="510" width="200" height="200" as="geometry" />
        </mxCell>
        <mxCell id="W-ZZmaoJpfkEgvUS2qyO-49" style="edgeStyle=orthogonalEdgeStyle;rounded=0;orthogonalLoop=1;jettySize=auto;html=1;exitX=0.5;exitY=0;exitDx=0;exitDy=0;entryX=0.407;entryY=0.032;entryDx=0;entryDy=0;entryPerimeter=0;" parent="WIyWlLk6GJQsqaUBKTNV-1" source="W-ZZmaoJpfkEgvUS2qyO-45" target="W-ZZmaoJpfkEgvUS2qyO-45" edge="1">
          <mxGeometry relative="1" as="geometry" />
        </mxCell>
        <mxCell id="W-ZZmaoJpfkEgvUS2qyO-51" value="NumChil&lt;br&gt;NumPar&lt;br&gt;NumOld&lt;br&gt;Income" style="text;html=1;align=center;verticalAlign=middle;resizable=0;points=[];autosize=1;strokeColor=none;fillColor=none;" parent="WIyWlLk6GJQsqaUBKTNV-1" vertex="1">
          <mxGeometry x="85" y="535" width="70" height="70" as="geometry" />
        </mxCell>
        <mxCell id="LEjf0Js33OpnvhWqmB9_-0" value="On recepient id creation/year" style="text;html=1;align=center;verticalAlign=middle;resizable=0;points=[];autosize=1;strokeColor=none;fillColor=none;rotation=90;" vertex="1" parent="WIyWlLk6GJQsqaUBKTNV-1">
          <mxGeometry x="140" y="480" width="180" height="30" as="geometry" />
        </mxCell>
        <mxCell id="LEjf0Js33OpnvhWqmB9_-19" style="edgeStyle=orthogonalEdgeStyle;rounded=0;orthogonalLoop=1;jettySize=auto;html=1;" edge="1" parent="WIyWlLk6GJQsqaUBKTNV-1" source="LEjf0Js33OpnvhWqmB9_-1">
          <mxGeometry relative="1" as="geometry">
            <mxPoint x="600" y="350" as="targetPoint" />
          </mxGeometry>
        </mxCell>
        <mxCell id="LEjf0Js33OpnvhWqmB9_-1" value="Users" style="swimlane;" vertex="1" parent="WIyWlLk6GJQsqaUBKTNV-1">
          <mxGeometry x="314" y="250" width="200" height="200" as="geometry" />
        </mxCell>
        <mxCell id="LEjf0Js33OpnvhWqmB9_-3" value="ID&lt;br&gt;Password&lt;br&gt;Permissions(object with values)" style="text;html=1;align=center;verticalAlign=middle;resizable=0;points=[];autosize=1;strokeColor=none;fillColor=none;" vertex="1" parent="WIyWlLk6GJQsqaUBKTNV-1">
          <mxGeometry x="305" y="280" width="190" height="60" as="geometry" />
        </mxCell>
        <mxCell id="LEjf0Js33OpnvhWqmB9_-8" style="edgeStyle=orthogonalEdgeStyle;rounded=0;orthogonalLoop=1;jettySize=auto;html=1;entryX=0.447;entryY=-0.004;entryDx=0;entryDy=0;entryPerimeter=0;" edge="1" parent="WIyWlLk6GJQsqaUBKTNV-1" source="LEjf0Js33OpnvhWqmB9_-4" target="LEjf0Js33OpnvhWqmB9_-6">
          <mxGeometry relative="1" as="geometry" />
        </mxCell>
        <mxCell id="LEjf0Js33OpnvhWqmB9_-4" value="Items (array)&lt;br&gt;Name&lt;br&gt;Description/Color" style="text;html=1;align=center;verticalAlign=middle;resizable=0;points=[];autosize=1;strokeColor=none;fillColor=none;" vertex="1" parent="WIyWlLk6GJQsqaUBKTNV-1">
          <mxGeometry x="630" y="300" width="120" height="60" as="geometry" />
        </mxCell>
        <mxCell id="LEjf0Js33OpnvhWqmB9_-18" style="edgeStyle=orthogonalEdgeStyle;rounded=0;orthogonalLoop=1;jettySize=auto;html=1;entryX=0.5;entryY=0;entryDx=0;entryDy=0;" edge="1" parent="WIyWlLk6GJQsqaUBKTNV-1" source="LEjf0Js33OpnvhWqmB9_-6" target="LEjf0Js33OpnvhWqmB9_-9">
          <mxGeometry relative="1" as="geometry" />
        </mxCell>
        <mxCell id="LEjf0Js33OpnvhWqmB9_-6" value="Items" style="swimlane;" vertex="1" parent="WIyWlLk6GJQsqaUBKTNV-1">
          <mxGeometry x="600" y="385" width="200" height="75" as="geometry" />
        </mxCell>
        <mxCell id="LEjf0Js33OpnvhWqmB9_-7" value="Name&lt;br&gt;Location&lt;br&gt;Quantity&lt;br&gt;" style="text;html=1;align=center;verticalAlign=middle;resizable=0;points=[];autosize=1;strokeColor=none;fillColor=none;" vertex="1" parent="WIyWlLk6GJQsqaUBKTNV-1">
          <mxGeometry x="645" y="410" width="70" height="60" as="geometry" />
        </mxCell>
        <mxCell id="LEjf0Js33OpnvhWqmB9_-9" value="Item log" style="swimlane;" vertex="1" parent="WIyWlLk6GJQsqaUBKTNV-1">
          <mxGeometry x="600" y="510" width="200" height="200" as="geometry" />
        </mxCell>
        <mxCell id="LEjf0Js33OpnvhWqmB9_-14" value="Quantity" style="text;html=1;align=center;verticalAlign=middle;resizable=0;points=[];autosize=1;strokeColor=none;fillColor=none;" vertex="1" parent="LEjf0Js33OpnvhWqmB9_-9">
          <mxGeometry x="65" y="100" width="70" height="30" as="geometry" />
        </mxCell>
        <mxCell id="LEjf0Js33OpnvhWqmB9_-11" value="Recipient" style="text;html=1;align=center;verticalAlign=middle;resizable=0;points=[];autosize=1;strokeColor=none;fillColor=none;" vertex="1" parent="LEjf0Js33OpnvhWqmB9_-9">
          <mxGeometry x="65" y="70" width="70" height="30" as="geometry" />
        </mxCell>
        <mxCell id="LEjf0Js33OpnvhWqmB9_-10" value="Date out&lt;br&gt;Worker(Who verified checkout)&amp;nbsp;" style="text;html=1;align=center;verticalAlign=middle;resizable=0;points=[];autosize=1;strokeColor=none;fillColor=none;" vertex="1" parent="LEjf0Js33OpnvhWqmB9_-9">
          <mxGeometry x="5" y="30" width="190" height="40" as="geometry" />
        </mxCell>
        <mxCell id="LEjf0Js33OpnvhWqmB9_-20" value="Can Access" style="text;html=1;align=center;verticalAlign=middle;resizable=0;points=[];autosize=1;strokeColor=none;fillColor=none;" vertex="1" parent="WIyWlLk6GJQsqaUBKTNV-1">
          <mxGeometry x="514" y="315" width="90" height="30" as="geometry" />
        </mxCell>
        <mxCell id="LEjf0Js33OpnvhWqmB9_-22" value="Checkout log" style="swimlane;fontStyle=0;childLayout=stackLayout;horizontal=1;startSize=30;horizontalStack=0;resizeParent=1;resizeParentMax=0;resizeLast=0;collapsible=1;marginBottom=0;" vertex="1" parent="WIyWlLk6GJQsqaUBKTNV-1">
          <mxGeometry x="440" y="605" width="140" height="110" as="geometry" />
        </mxCell>
        <mxCell id="LEjf0Js33OpnvhWqmB9_-23" value="Recipient ID" style="text;strokeColor=none;fillColor=none;align=left;verticalAlign=middle;spacingLeft=4;spacingRight=4;overflow=hidden;points=[[0,0.5],[1,0.5]];portConstraint=eastwest;rotatable=0;" vertex="1" parent="LEjf0Js33OpnvhWqmB9_-22">
          <mxGeometry y="30" width="140" height="30" as="geometry" />
        </mxCell>
        <mxCell id="LEjf0Js33OpnvhWqmB9_-24" value="Array of item logs&#xa;Date of checkout" style="text;strokeColor=none;fillColor=none;align=left;verticalAlign=middle;spacingLeft=4;spacingRight=4;overflow=hidden;points=[[0,0.5],[1,0.5]];portConstraint=eastwest;rotatable=0;" vertex="1" parent="LEjf0Js33OpnvhWqmB9_-22">
          <mxGeometry y="60" width="140" height="50" as="geometry" />
        </mxCell>
      </root>
    </mxGraphModel>
  </diagram>
</mxfile>
